<?xml version="1.0" standalone="no"?><!DOCTYPE svg PUBLIC "-//W3C//DTD SVG 1.1//EN" "http://www.w3.org/Graphics/SVG/1.1/DTD/svg11.dtd"><svg t="1752653907566" class="icon" viewBox="0 0 1024 1024" version="1.1" xmlns="http://www.w3.org/2000/svg" p-id="18102" xmlns:xlink="http://www.w3.org/1999/xlink" width="48" height="48"><path d="M512 1024C230.4 1024 0 793.6 0 512S230.4 0 512 0s512 230.4 512 512-230.4 512-512 512zM31.288889 512c0 264.533333 216.177778 480.711111 480.711111 480.711111 256 0 469.333333-201.955556 480.711111-460.8l-475.022222 14.222222h-2.844445-5.688888c-2.844444 0-8.533333-2.844444-11.377778-5.688889L150.755556 193.422222C73.955556 281.6 31.288889 395.377778 31.288889 512zM512 31.288889C384 31.288889 261.688889 79.644444 173.511111 170.666667L512 509.155556 839.111111 159.288889C750.933333 76.8 634.311111 31.288889 512 31.288889z m349.866667 150.755555L548.977778 512l443.733333-11.377778c-2.844444-119.466667-48.355556-233.244444-130.844444-318.577778zM329.955556 884.622222c-2.844444 0-5.688889 0-11.377778-2.844444-71.111111-34.133333-128-91.022222-164.977778-159.288889-2.844444-8.533333 0-17.066667 5.688889-22.755556 8.533333-2.844444 17.066667 0 22.755555 5.688889 34.133333 62.577778 85.333333 113.777778 150.755556 147.911111 8.533333 2.844444 11.377778 14.222222 5.688889 22.755556 2.844444 2.844444-2.844444 5.688889-8.533333 8.533333zM147.911111 654.222222c-8.533333 2.844444-17.066667-2.844444-19.911111-11.377778s-5.688889-19.911111-5.688889-31.288888c0-8.533333 5.688889-17.066667 14.222222-19.911112 8.533333 0 17.066667 5.688889 17.066667 14.222223 2.844444 8.533333 2.844444 19.911111 5.688889 28.444444 2.844444 8.533333-2.844444 19.911111-11.377778 19.911111z" fill="#2c2c2c" p-id="18103"></path></svg>