<?xml version="1.0" standalone="no"?><!DOCTYPE svg PUBLIC "-//W3C//DTD SVG 1.1//EN" "http://www.w3.org/Graphics/SVG/1.1/DTD/svg11.dtd"><svg t="1752653947270" class="icon" viewBox="0 0 1024 1024" version="1.1" xmlns="http://www.w3.org/2000/svg" p-id="19125" xmlns:xlink="http://www.w3.org/1999/xlink" width="48" height="48"><path d="M331.050667 85.333333H341.333333a42.666667 42.666667 0 1 1 0 85.333334h-8.533333c-36.565333 0-61.397333 0-80.597333 1.621333-18.688 1.493333-28.288 4.266667-34.944 7.68a85.333333 85.333333 0 0 0-37.290667 37.290667c-3.413333 6.656-6.186667 16.213333-7.68 34.944C170.666667 271.402667 170.666667 296.234667 170.666667 332.8V341.333333a42.666667 42.666667 0 1 1-85.333334 0v-10.282666c0-34.346667 0-62.72 1.877334-85.76 1.962667-24.021333 6.186667-46.08 16.725333-66.773334a170.666667 170.666667 0 0 1 74.581333-74.581333c20.693333-10.538667 42.752-14.762667 66.730667-16.725333C268.373333 85.333333 296.704 85.333333 331.008 85.333333zM771.797333 172.288C752.597333 170.666667 727.765333 170.666667 691.2 170.666667H682.666667a42.666667 42.666667 0 1 1 0-85.333334h10.282666c34.346667 0 62.72 0 85.76 1.877334 24.021333 1.962667 46.08 6.186667 66.773334 16.725333a170.666667 170.666667 0 0 1 74.581333 74.581333c10.538667 20.693333 14.762667 42.752 16.725333 66.730667C938.666667 268.373333 938.666667 296.704 938.666667 331.008V341.333333a42.666667 42.666667 0 1 1-85.333334 0v-8.533333c0-36.565333 0-61.397333-1.621333-80.597333-1.493333-18.688-4.266667-28.288-7.68-34.944a85.333333 85.333333 0 0 0-37.290667-37.290667c-6.656-3.413333-16.213333-6.186667-34.944-7.68zM320 298.666667a42.666667 42.666667 0 0 1 42.666667 42.666666v64a42.666667 42.666667 0 1 1-85.333334 0V341.333333a42.666667 42.666667 0 0 1 42.666667-42.666666zM533.333333 298.666667a42.666667 42.666667 0 0 1 42.666667 42.666666v132.266667c0 57.685333-48.981333 106.666667-106.666667 106.666667a42.666667 42.666667 0 1 1 0-85.333334c10.581333 0 21.333333-10.752 21.333334-21.333333V341.333333a42.666667 42.666667 0 0 1 42.666666-42.666666zM704 298.666667a42.666667 42.666667 0 0 1 42.666667 42.666666v64a42.666667 42.666667 0 1 1-85.333334 0V341.333333a42.666667 42.666667 0 0 1 42.666667-42.666666zM341.034667 618.368a42.666667 42.666667 0 0 1 60.330666 0 153.045333 153.045333 0 0 0 217.002667 0 42.666667 42.666667 0 0 1 60.330667 60.330667 238.378667 238.378667 0 0 1-337.664 0 42.666667 42.666667 0 0 1 0-60.330667zM128 640a42.666667 42.666667 0 0 1 42.666667 42.666667v8.533333c0 36.565333 0 61.397333 1.621333 80.597333 1.493333 18.688 4.266667 28.288 7.68 34.944a85.333333 85.333333 0 0 0 37.290667 37.290667c6.656 3.413333 16.213333 6.186667 34.944 7.68C271.402667 853.333333 296.234667 853.333333 332.8 853.333333H341.333333a42.666667 42.666667 0 1 1 0 85.333334h-10.282666c-34.346667 0-62.72 0-85.76-1.877334-24.021333-1.962667-46.08-6.186667-66.773334-16.725333a170.666667 170.666667 0 0 1-74.581333-74.581333c-10.538667-20.693333-14.762667-42.752-16.725333-66.730667C85.333333 755.626667 85.333333 727.296 85.333333 692.992V682.666667a42.666667 42.666667 0 0 1 42.666667-42.666667zM896 640a42.666667 42.666667 0 0 1 42.666667 42.666667v10.282666c0 34.346667 0 62.72-1.877334 85.76-1.962667 24.021333-6.186667 46.08-16.725333 66.773334a170.666667 170.666667 0 0 1-74.581333 74.581333c-20.693333 10.538667-42.752 14.762667-66.730667 16.725333-23.082667 1.877333-51.456 1.877333-85.76 1.877334H682.666667a42.666667 42.666667 0 1 1 0-85.333334h8.533333c36.565333 0 61.397333 0 80.597333-1.621333 18.688-1.493333 28.288-4.266667 34.944-7.68a85.333333 85.333333 0 0 0 37.290667-37.290667c3.413333-6.656 6.186667-16.213333 7.68-34.944 1.578667-19.2 1.621333-44.032 1.621333-80.597333V682.666667a42.666667 42.666667 0 0 1 42.666667-42.666667z" p-id="19126" fill="#000000"></path></svg>